# xmcd
#
# Track frame offsets:
#       182
#       19110
#       40880
#       57755
#       70820
#       81472
#       99042
#       114955
#       131772
#       158430
#       175900
#
# Disc length: 2526 seconds
#
# Revision: 1
# Processed by: cddbd v1.4PL0 Copyright (c) Steve Scherf et al.
# Submitted via: MusiCat 1.1
#
DISCID=8109dc0b
DTITLE=Bukka White - The Legacy of the Blues vol.1
DYEAR=1963
DGENRE=
TTITLE0=Aberdeen Mississippi Blues
TTITLE1=Baby Please Don't Go
TTITLE2=New Orleans Streamline
TTITLE3=Parchman Farm Blues
TTITLE4=Poor Boy Long Ways From Home
TTITLE5=Rememberance of Charlie Patton
TTITLE6=Shake 'em on Down
TTITLE7=I Am the Heavenly Way
TTITLE8=The Atlanta Special
TTITLE9=Drunk Man Blues
TTITLE10=Army Blues
EXTD=1963\n\n\nsubmitted by Stamppot
EXTT0=
EXTT1=
EXTT2=
EXTT3=
EXTT4=
EXTT5=
EXTT6=
EXTT7=
EXTT8=
EXTT9=
EXTT10=
PLAYORDER=
